<?xml version="1.0" standalone="no"?>
<!DOCTYPE svg PUBLIC "-//W3C//DTD SVG 20010904//EN"
 "http://www.w3.org/TR/2001/REC-SVG-20010904/DTD/svg10.dtd">
<svg version="1.0" xmlns="http://www.w3.org/2000/svg"
 width="1524.000000pt" height="1524.000000pt" viewBox="0 0 1524.000000 1524.000000"
 preserveAspectRatio="xMidYMid meet">
<metadata>
Created by potrace 1.14, written by Peter Selinger 2001-2017
</metadata>
<g transform="translate(0.000000,1524.000000) scale(0.100000,-0.100000)"
fill="#000000" stroke="none">
<path d="M4005 13321 c-156 -4 -285 -12 -305 -19 -19 -6 -69 -18 -110 -26
-112 -22 -174 -37 -185 -46 -5 -4 -26 -11 -45 -15 -19 -4 -39 -11 -45 -15 -5
-4 -21 -11 -35 -15 -64 -19 -198 -85 -303 -149 -37 -22 -79 -47 -92 -54 -14
-7 -25 -17 -25 -23 0 -5 -5 -9 -11 -9 -20 0 -155 -114 -259 -219 -105 -106
-120 -122 -174 -196 -17 -22 -33 -42 -36 -45 -13 -10 -144 -225 -154 -252 -6
-15 -14 -28 -18 -28 -4 0 -8 -5 -8 -11 0 -7 -9 -30 -19 -53 -47 -100 -61 -133
-61 -143 0 -6 -7 -24 -15 -39 -8 -16 -15 -37 -15 -46 0 -9 -4 -19 -9 -22 -5
-4 -12 -25 -16 -48 -4 -23 -11 -49 -16 -58 -20 -37 -64 -291 -79 -455 -5 -64
-10 -616 -9 -1327 l0 -1218 564 0 565 0 0 1153 c0 1142 0 1154 21 1223 21 69
34 103 70 180 10 22 19 43 19 46 0 6 98 176 112 193 4 6 27 35 50 65 37 49 93
113 138 159 47 48 148 130 222 180 92 63 274 155 328 166 19 4 40 11 46 16 38
31 162 34 1287 34 l1128 0 -3 552 c-2 303 -6 554 -9 557 -9 9 -2180 15 -2494
7z"/>
<path d="M8800 12750 l0 -560 1173 -2 c867 -2 1179 -6 1197 -15 14 -6 64 -24
113 -39 48 -16 87 -31 87 -35 0 -4 11 -10 25 -13 13 -3 47 -20 75 -36 28 -17
53 -30 56 -30 4 0 59 -38 138 -94 111 -80 296 -281 363 -396 14 -25 29 -47 32
-50 13 -11 97 -190 133 -285 l23 -60 5 -1180 5 -1180 565 0 565 0 3 1200 c2
805 0 1226 -7 1280 -6 44 -15 123 -20 175 -12 117 -29 218 -41 245 -5 11 -15
49 -21 85 -7 36 -15 70 -19 75 -4 6 -11 25 -15 43 -4 18 -13 45 -21 60 -8 15
-14 35 -14 44 0 9 -4 19 -9 22 -5 3 -12 18 -16 33 -9 37 -92 204 -146 291 -24
40 -50 84 -57 97 -7 14 -17 25 -23 25 -5 0 -9 5 -9 11 0 30 -245 298 -355 389
-161 133 -466 306 -590 336 -17 4 -34 10 -40 14 -5 4 -26 11 -45 15 -19 4 -39
11 -45 15 -5 4 -30 11 -55 15 -25 4 -52 11 -61 16 -8 4 -67 16 -130 26 -104
16 -232 18 -1466 20 l-1353 3 0 -560z"/>
<path d="M8373 11260 c-61 -37 -63 -48 -63 -377 0 -278 1 -300 20 -330 24 -40
57 -62 103 -70 28 -4 46 1 82 22 74 43 74 47 72 398 -2 289 -3 306 -22 327
-47 52 -133 66 -192 30z"/>
<path d="M7695 11057 c-63 -25 -105 -77 -105 -130 0 -12 43 -97 95 -188 52
-90 121 -210 152 -267 49 -87 64 -105 99 -122 69 -34 140 -10 177 61 27 51 17
94 -48 205 -32 55 -76 131 -98 169 -89 155 -150 255 -161 264 -19 16 -80 21
-111 8z"/>
<path d="M9107 11053 c-16 -10 -40 -40 -54 -68 -14 -27 -42 -77 -63 -110 -20
-33 -63 -107 -96 -165 -32 -58 -71 -125 -86 -149 -44 -70 -35 -133 26 -190 21
-19 37 -25 75 -25 64 0 105 31 152 115 19 35 71 125 114 199 168 287 169 291
108 359 -34 38 -44 43 -93 47 -42 4 -62 0 -83 -13z"/>
<path d="M8360 10108 c-84 -13 -171 -58 -212 -109 -57 -71 -58 -75 -58 -248
l0 -161 -1843 0 -1843 0 -73 -35 c-95 -46 -190 -138 -231 -228 -66 -139 -63
-49 -61 -1786 2 -1551 2 -1574 22 -1634 27 -80 74 -150 142 -215 102 -95 190
-122 409 -122 l126 0 -1 179 -2 179 -70 4 c-43 3 -85 13 -110 25 -47 25 -109
83 -129 121 -38 74 -38 101 -32 1550 6 1218 9 1410 22 1441 20 49 78 107 139
139 l50 27 1307 3 1308 2 -6 -1652 -6 -1653 -197 -3 -196 -2 0 -180 0 -180
775 0 775 0 0 180 0 180 -392 0 -393 0 0 368 c0 202 -1 946 -3 1655 l-2 1287
814 0 813 0 48 -26 c27 -15 62 -46 80 -71 32 -44 110 -207 110 -230 0 -6 14
-42 31 -80 17 -37 46 -106 64 -153 37 -98 78 -196 146 -361 27 -64 49 -120 49
-124 0 -5 22 -61 48 -124 27 -64 57 -137 66 -163 26 -70 86 -118 183 -147 408
-122 745 -232 791 -258 93 -53 163 -140 185 -230 9 -35 11 -193 7 -583 l-5
-535 -33 -67 c-19 -39 -46 -77 -67 -92 -66 -51 -92 -56 -274 -56 l-170 0 2
-57 c1 -32 0 -116 -2 -188 l-3 -130 228 0 c247 0 335 10 419 49 105 49 207
170 244 290 17 56 18 109 19 686 1 344 -2 680 -6 746 -7 108 -11 128 -40 187
-37 74 -104 154 -168 198 -43 29 -149 66 -489 168 -93 28 -231 69 -305 92 -74
22 -144 44 -155 47 -65 18 -112 81 -174 233 -44 109 -84 207 -153 374 -27 66
-69 167 -93 225 -24 58 -60 146 -80 195 -21 50 -56 134 -77 189 -75 185 -135
263 -243 313 l-60 28 -272 3 -273 3 0 150 c0 169 -6 189 -79 267 -74 78 -218
120 -341 100z"/>
<path d="M7910 9003 c-48 -6 -85 -36 -112 -91 l-23 -47 0 -480 0 -481 25 -49
c18 -34 42 -61 74 -82 l48 -33 797 0 c772 0 797 1 828 20 71 43 84 129 39 245
-55 142 -120 302 -154 385 -20 47 -48 117 -63 155 -39 103 -108 275 -126 313
-19 42 -82 104 -131 128 -35 18 -72 19 -602 20 -311 1 -581 -1 -600 -3z m1083
-380 c25 -54 56 -125 70 -158 14 -33 45 -105 70 -160 25 -55 65 -146 90 -202
l46 -103 -604 0 -603 0 -4 208 c-1 114 -2 276 0 360 l3 152 443 0 443 0 46
-97z"/>
<path d="M5490 8595 l0 -275 -269 0 -269 0 -4 -62 c-3 -35 -4 -166 -4 -293 l1
-230 270 0 270 0 3 -273 2 -272 293 2 292 3 3 267 2 268 268 2 267 3 3 293 2
292 -270 0 -270 0 0 275 0 275 -295 0 -295 0 0 -275z"/>
<path d="M5589 6680 c-442 -93 -750 -474 -749 -927 1 -421 269 -773 685 -899
82 -25 105 -27 250 -28 189 0 265 16 412 89 323 159 523 479 525 840 1 212
-61 398 -188 566 -217 286 -595 431 -935 359z m331 -325 c286 -76 478 -345
457 -642 -15 -216 -147 -410 -342 -503 -97 -46 -169 -62 -284 -61 -166 1 -298
58 -421 181 -247 247 -236 651 24 886 67 61 176 120 258 140 73 17 241 17 308
-1z"/>
<path d="M9229 6670 c-442 -93 -750 -474 -749 -927 1 -421 269 -773 685 -899
82 -25 105 -27 250 -28 189 0 265 16 412 89 323 159 523 479 525 840 1 212
-61 398 -188 566 -217 286 -595 431 -935 359z m331 -325 c286 -76 478 -345
457 -642 -15 -216 -147 -410 -342 -503 -97 -46 -169 -62 -284 -61 -166 1 -298
58 -421 181 -247 247 -236 651 24 886 67 61 176 120 258 140 73 17 241 17 308
-1z"/>
<path d="M1961 5238 c0 -1196 3 -1339 33 -1523 23 -139 72 -342 87 -359 5 -6
9 -16 9 -24 0 -8 6 -28 14 -45 7 -18 26 -66 42 -107 16 -41 32 -77 35 -80 4
-3 11 -18 14 -33 4 -15 11 -27 16 -27 5 0 9 -5 9 -12 0 -29 165 -287 232 -364
121 -137 229 -243 313 -307 5 -4 33 -25 61 -47 29 -22 56 -40 62 -40 6 0 12
-3 14 -8 7 -16 210 -128 313 -172 28 -12 64 -27 80 -35 17 -7 46 -16 65 -20
19 -4 40 -11 45 -15 6 -4 26 -11 45 -14 19 -4 44 -11 55 -16 24 -11 95 -26
230 -48 89 -14 251 -16 1440 -17 l1340 0 0 560 0 560 -1110 1 c-610 1 -1142 4
-1180 8 -177 14 -446 144 -636 306 -89 76 -152 143 -227 240 -23 30 -46 60
-50 65 -5 6 -21 33 -37 60 -16 28 -32 52 -35 55 -7 6 -80 156 -80 165 0 4 -6
21 -14 38 -8 18 -24 63 -35 101 -21 69 -21 81 -21 1223 l0 1153 -565 0 -564 0
0 -1222z"/>
<path d="M12210 5307 c0 -1142 0 -1154 -21 -1223 -11 -38 -27 -83 -35 -101 -8
-17 -14 -34 -14 -38 0 -12 -74 -160 -82 -163 -4 -2 -8 -8 -8 -13 0 -8 -37 -70
-62 -104 -104 -140 -175 -218 -277 -305 -190 -162 -459 -292 -636 -306 -38 -4
-569 -7 -1180 -8 l-1110 -1 0 -560 0 -560 1340 0 c1190 1 1351 3 1440 17 135
22 206 37 230 48 11 5 36 12 55 16 19 3 40 10 45 14 6 4 26 11 45 15 19 4 54
16 77 26 23 11 49 19 57 19 9 0 16 5 16 10 0 6 5 10 11 10 26 0 289 144 297
162 2 5 8 8 14 8 6 0 30 16 54 35 23 19 47 35 53 35 5 0 14 6 18 13 4 7 22 23
38 35 43 33 191 179 234 231 20 25 46 55 57 68 12 13 34 42 50 65 16 24 31 45
34 48 3 3 19 28 35 55 15 28 31 52 34 55 3 3 20 32 36 65 17 33 33 62 37 65 3
3 10 18 13 33 4 15 11 27 16 27 5 0 9 6 9 13 0 6 6 23 13 37 7 14 25 61 41
105 15 44 31 89 36 100 42 99 92 356 110 555 5 58 9 655 9 1328 l1 1222 -565
0 -565 0 0 -1153z"/>
</g>
</svg>
